<svg width="13" height="13" viewBox="0 0 13 13" fill="none" xmlns="http://www.w3.org/2000/svg">
<path fill-rule="evenodd" clip-rule="evenodd" d="M11.906 1.3033C12.4918 1.88909 12.4918 2.83883 11.906 3.42462L8.72402 6.6066L11.906 9.78858C12.4918 10.3744 12.4918 11.3241 11.906 11.9099C11.3202 12.4957 10.3705 12.4957 9.78468 11.9099L6.6027 8.72792L3.42071 11.9099C2.83493 12.4957 1.88518 12.4957 1.29939 11.9099C0.713608 11.3241 0.713608 10.3744 1.29939 9.78858L4.48137 6.6066L1.29939 3.42462C0.713608 2.83883 0.713608 1.88909 1.29939 1.3033C1.88518 0.717514 2.83493 0.717514 3.42071 1.3033L6.6027 4.48528L9.78468 1.3033C10.3705 0.717514 11.3202 0.717514 11.906 1.3033Z" fill="#080C08"/>
</svg>
