<svg width="25" height="32" viewBox="0 0 25 32" fill="none" xmlns="http://www.w3.org/2000/svg">
<path d="M12.75 17.5C11.0194 17.5 9.32769 16.9868 7.88876 16.0254C6.44983 15.0639 5.32832 13.6973 4.66605 12.0985C4.00379 10.4996 3.83051 8.7403 4.16813 7.04296C4.50575 5.34563 5.33911 3.78653 6.56282 2.56282C7.78653 1.33911 9.34563 0.505753 11.043 0.168133C12.7403 -0.169488 14.4996 0.00379124 16.0985 0.666058C17.6973 1.32832 19.0639 2.44983 20.0254 3.88876C20.9868 5.32769 21.5 7.01942 21.5 8.75C21.5 11.0706 20.5781 13.2962 18.9372 14.9372C17.2962 16.5781 15.0706 17.5 12.75 17.5ZM12.75 3.5C11.7116 3.5 10.6966 3.80791 9.83326 4.38479C8.9699 4.96167 8.29699 5.7816 7.89963 6.74092C7.50227 7.70023 7.3983 8.75583 7.60088 9.77423C7.80345 10.7926 8.30346 11.7281 9.03769 12.4623C9.77191 13.1965 10.7074 13.6966 11.7258 13.8991C12.7442 14.1017 13.7998 13.9977 14.7591 13.6004C15.7184 13.203 16.5383 12.5301 17.1152 11.6667C17.6921 10.8034 18 9.78836 18 8.75C18 7.35762 17.4469 6.02226 16.4623 5.03769C15.4777 4.05313 14.1424 3.5 12.75 3.5ZM0.5 26.25V29.75C0.5 30.2141 0.684374 30.6593 1.01256 30.9874C1.34075 31.3156 1.78587 31.5 2.25 31.5C2.71413 31.5 3.15925 31.3156 3.48744 30.9874C3.81563 30.6593 4 30.2141 4 29.75V26.25C4 25.7859 4.18437 25.3408 4.51256 25.0126C4.84075 24.6844 5.28587 24.5 5.75 24.5H19.75C20.2141 24.5 20.6592 24.6844 20.9874 25.0126C21.3156 25.3408 21.5 25.7859 21.5 26.25V29.75C21.5 30.2141 21.6844 30.6593 22.0126 30.9874C22.3408 31.3156 22.7859 31.5 23.25 31.5C23.7141 31.5 24.1592 31.3156 24.4874 30.9874C24.8156 30.6593 25 30.2141 25 29.75V26.25C25 24.8576 24.4469 23.5223 23.4623 22.5377C22.4777 21.5531 21.1424 21 19.75 21H5.75C4.35761 21 3.02225 21.5531 2.03769 22.5377C1.05312 23.5223 0.5 24.8576 0.5 26.25Z" fill="white"/>
</svg>
