<svg width="30" height="24" viewBox="0 0 30 24" fill="none" xmlns="http://www.w3.org/2000/svg">
<path d="M30 1.66667C30 1.22464 29.8244 0.800716 29.5118 0.488156C29.1993 0.175595 28.7754 0 28.3333 0H1.66667C1.22464 0 0.800714 0.175595 0.488155 0.488156C0.175594 0.800716 0 1.22464 0 1.66667C0 2.10869 0.175594 2.53262 0.488155 2.84518C0.800714 3.15774 1.22464 3.33333 1.66667 3.33333H28.3333C28.7754 3.33333 29.1993 3.15774 29.5118 2.84518C29.8244 2.53262 30 2.10869 30 1.66667ZM1.66667 10H28.3333C28.7754 10 29.1993 10.1756 29.5118 10.4882C29.8244 10.8007 30 11.2246 30 11.6667C30 12.1087 29.8244 12.5326 29.5118 12.8452C29.1993 13.1577 28.7754 13.3333 28.3333 13.3333H1.66667C1.22464 13.3333 0.800714 13.1577 0.488155 12.8452C0.175594 12.5326 0 12.1087 0 11.6667C0 11.2246 0.175594 10.8007 0.488155 10.4882C0.800714 10.1756 1.22464 10 1.66667 10ZM1.66667 20H28.3333C28.7754 20 29.1993 20.1756 29.5118 20.4882C29.8244 20.8007 30 21.2246 30 21.6667C30 22.1087 29.8244 22.5326 29.5118 22.8452C29.1993 23.1577 28.7754 23.3333 28.3333 23.3333H1.66667C1.22464 23.3333 0.800714 23.1577 0.488155 22.8452C0.175594 22.5326 0 22.1087 0 21.6667C0 21.2246 0.175594 20.8007 0.488155 20.4882C0.800714 20.1756 1.22464 20 1.66667 20Z" fill="white"/>
</svg>
